<?xml version="1.0" encoding="UTF-8"?>
<!DOCTYPE svg PUBLIC "-//W3C//DTD SVG 1.1//EN" "http://www.w3.org/Graphics/SVG/1.1/DTD/svg11.dtd">
<!-- Creator: CorelDRAW 2020 (64-Bit) -->
<svg xmlns="http://www.w3.org/2000/svg" xml:space="preserve" width="162px" height="162px" version="1.1" style="shape-rendering:geometricPrecision; text-rendering:geometricPrecision; image-rendering:optimizeQuality; fill-rule:evenodd; clip-rule:evenodd"
viewBox="0 0 4.79 4.79"
 xmlns:xlink="http://www.w3.org/1999/xlink"
 xmlns:xodm="http://www.corel.com/coreldraw/odm/2003">
 <defs>
  <style type="text/css">
   <![CDATA[
    .fil0 {fill:#FEFEFE}
   ]]>
  </style>
 </defs>
 <g id="Слой_x0020_1">
  <metadata id="CorelCorpID_0Corel-Layer"/>
  <g id="_1816568120352">
   <path class="fil0" d="M0 2.3l0 0.05c0.02,0 0.05,0 0.07,0 0.01,0 0.02,0 0.04,0 0.01,0 0.02,0 0.03,0 0.01,0 0.01,-0.01 0.02,-0.01 0,0 0.01,0 0.02,0l0.07 0c0.01,0 0.02,0 0.03,0 0.03,0 0.05,0 0.07,0 0.02,0 0.03,0 0.04,0 0.02,0 0.05,-0.01 0.07,-0.01 0.03,0 0.07,0 0.11,0 0,0 0,0 0.01,0l0.19 -0.02c0.02,0 0.05,0 0.07,0 0.11,-0.01 0.27,-0.03 0.38,-0.06 0.02,0 0.04,-0.01 0.06,-0.01l0.09 -0.03c0.09,-0.03 0.18,-0.06 0.27,-0.11 0,0 0,0 0.01,-0.01 0.06,-0.03 0.12,-0.08 0.17,-0.12l0.03 -0.02c0.03,-0.03 0.06,-0.05 0.08,-0.07 0,-0.01 0,-0.01 0.01,-0.01 0,-0.01 0,-0.01 0.01,-0.01l0.1 -0.14c0.02,-0.03 0.05,-0.07 0.07,-0.11 0.08,-0.16 0.12,-0.33 0.15,-0.51 0.02,-0.08 0.04,-0.24 0.04,-0.32l0.01 -0.07c0,-0.01 0,-0.02 0,-0.04 0,-0.02 0.01,-0.04 0.01,-0.06l0 -0.14c0,-0.03 0.01,-0.06 0.01,-0.09 0,-0.01 0,-0.01 0,-0.02 0,-0.01 0,-0.02 0,-0.04l0 -0.09c0,0 0,0 0,-0.01 0,-0.01 0,-0.03 0,-0.04 0,-0.01 0.01,-0.02 0.01,-0.03 0,-0.05 0,-0.1 0,-0.15 -0.08,0 -0.16,0.01 -0.23,0.01 -0.02,0.01 -0.05,0.01 -0.07,0.01 -0.1,0.02 -0.19,0.04 -0.3,0.07 -0.02,0 -0.03,0.01 -0.05,0.01 -0.04,0.01 -0.08,0.02 -0.11,0.04l-0.05 0.02c-0.04,0.01 -0.07,0.03 -0.11,0.04 -0.01,0.01 -0.03,0.01 -0.05,0.02l-0.13 0.07c-0.06,0.03 -0.13,0.07 -0.19,0.11 -0.01,0.01 -0.01,0.01 -0.02,0.02 -0.03,0.02 -0.07,0.05 -0.1,0.07 -0.02,0.02 -0.03,0.03 -0.04,0.04 -0.01,0 -0.02,0.01 -0.02,0.01 -0.03,0.02 -0.06,0.05 -0.08,0.07l-0.15 0.14 -0.12 0.14c-0.01,0.01 -0.02,0.02 -0.03,0.04 -0.02,0.02 -0.04,0.05 -0.06,0.08 -0.04,0.06 -0.08,0.11 -0.11,0.17 -0.04,0.07 -0.07,0.13 -0.1,0.19 -0.03,0.07 -0.06,0.14 -0.09,0.21 -0.06,0.18 -0.11,0.39 -0.13,0.58 0,0.05 -0.01,0.09 -0.01,0.14z"/>
   <path class="fil0" d="M2.49 0.04c0,0.06 0,0.13 0,0.18 0,0.01 0,0.03 0,0.04 0,0.01 0,0.02 0,0.03 0,0.03 0,0.05 0,0.07 0,0.03 0.01,0.07 0.01,0.1l0 0.03c0,0.01 0,0.02 0,0.02 0,0.01 0,0.01 0,0.02 0,0 0,0.01 0,0.01 0,0.01 0,0.01 0,0.02 0,0.02 0.01,0.05 0.01,0.07l0.01 0.16c0,0.03 0.01,0.06 0.01,0.1 0,0.02 0.01,0.04 0.01,0.06 0,0.04 0.01,0.08 0.02,0.12l0.02 0.12c0.01,0.04 0.01,0.08 0.02,0.11 0.03,0.09 0.05,0.17 0.09,0.25l0.05 0.09c0,0.01 0,0.01 0,0.02l0.02 0.03c0.02,0.02 0.03,0.05 0.05,0.07 0.02,0.03 0.04,0.06 0.06,0.08 0.02,0.02 0.05,0.05 0.07,0.07l0.04 0.04c0,0 0,0 0.01,0 0,0.01 0,0.01 0.01,0.01 0.04,0.03 0.08,0.07 0.12,0.09l0.11 0.07c0.22,0.11 0.5,0.16 0.76,0.19 0.04,0 0.08,0 0.13,0.01l0.14 0.01c0.03,0 0.06,0 0.09,0l0.35 0.02c0.01,0 0.01,0 0.02,0 0.01,0 0.02,0 0.03,0 0.01,0 0.02,0 0.04,0l0 -0.05c0,-0.03 -0.01,-0.07 -0.01,-0.1 -0.01,-0.16 -0.05,-0.36 -0.1,-0.51 0,-0.02 -0.01,-0.04 -0.01,-0.05l-0.05 -0.13c-0.01,-0.01 -0.01,-0.02 -0.01,-0.03 -0.02,-0.03 -0.03,-0.07 -0.05,-0.1 -0.01,-0.03 -0.05,-0.1 -0.06,-0.13l-0.02 -0.03c-0.02,-0.04 -0.04,-0.07 -0.06,-0.11l-0.04 -0.05c-0.01,-0.01 -0.02,-0.03 -0.03,-0.04l-0.04 -0.06c-0.03,-0.04 -0.05,-0.07 -0.07,-0.1 -0.02,-0.01 -0.03,-0.03 -0.04,-0.04l-0.06 -0.06c-0.01,-0.01 -0.02,-0.02 -0.03,-0.04l-0.05 -0.05c-0.02,-0.01 -0.03,-0.02 -0.04,-0.04 -0.01,0 -0.01,0 -0.01,0l-0.04 -0.04c-0.01,-0.01 -0.03,-0.02 -0.05,-0.04 -0.04,-0.04 -0.09,-0.07 -0.14,-0.11 -0.04,-0.03 -0.09,-0.06 -0.13,-0.08l-0.11 -0.07c-0.01,0 -0.01,0 -0.01,-0.01 -0.01,0 -0.01,0 -0.01,0 -0.05,-0.03 -0.1,-0.05 -0.15,-0.07l-0.15 -0.06c-0.04,-0.02 -0.07,-0.03 -0.11,-0.04 -0.02,-0.01 -0.04,-0.01 -0.05,-0.02 -0.02,0 -0.04,-0.01 -0.06,-0.01 -0.04,-0.01 -0.08,-0.02 -0.12,-0.03 -0.06,-0.01 -0.12,-0.02 -0.18,-0.03 -0.04,0 -0.09,-0.01 -0.13,-0.02 -0.02,0 -0.04,0 -0.05,0l-0.02 0c-0.01,0 -0.01,0.01 -0.01,0.04z"/>
   <path class="fil0" d="M0 2.49l0 0.07c0.01,0.02 0.01,0.04 0.01,0.06 0.01,0.15 0.05,0.34 0.1,0.48l0.04 0.14c0.01,0.01 0.01,0.01 0.01,0.02 0.02,0.04 0.03,0.07 0.04,0.11 0.03,0.04 0.05,0.1 0.08,0.14 0,0 0,0.01 0,0.01 0,0.01 0.01,0.01 0.01,0.01 0,0.01 0.01,0.02 0.01,0.03 0.04,0.06 0.1,0.15 0.14,0.22 0.01,0.01 0.02,0.02 0.03,0.04l0.06 0.08c0.01,0 0.01,0 0.01,0.01l0.16 0.17c0.01,0.02 0.04,0.04 0.06,0.06 0,0 0,0.01 0.01,0.01 0.03,0.03 0.07,0.06 0.1,0.09 0.01,0.01 0.01,0.01 0.02,0.02 0.04,0.03 0.11,0.08 0.15,0.11 0.05,0.03 0.1,0.06 0.15,0.09l0.17 0.09c0.04,0.02 0.09,0.05 0.15,0.07 0,0 0.01,0 0.02,0.01l0.19 0.06 0.08 0.02c0.08,0.02 0.16,0.04 0.24,0.05 0.05,0.01 0.09,0.01 0.13,0.02 0.05,0 0.09,0.01 0.14,0.01l0.04 0c0,-0.02 0,-0.02 0,-0.04l0 -0.09c-0.01,0 -0.01,0 -0.01,-0.01l0 -0.09c0,-0.01 0,-0.01 0,-0.02 0,-0.01 0,-0.02 0,-0.03 0,-0.01 0,-0.03 0,-0.04 0,-0.01 0,-0.02 0,-0.03 0,-0.04 -0.01,-0.1 -0.01,-0.14l0 -0.05c0,-0.01 0,-0.02 0,-0.02l-0.01 -0.05c0,-0.02 0,-0.04 0,-0.05 0,-0.03 -0.01,-0.08 -0.01,-0.1l-0.01 -0.07c0,-0.04 0,-0.09 -0.01,-0.13 -0.01,-0.04 -0.01,-0.08 -0.02,-0.12 -0.03,-0.14 -0.06,-0.27 -0.11,-0.4 -0.01,-0.01 -0.01,-0.02 -0.02,-0.02 -0.01,-0.05 -0.04,-0.09 -0.06,-0.12 -0.03,-0.06 -0.06,-0.11 -0.1,-0.15l-0.03 -0.04c-0.01,-0.01 -0.01,-0.01 -0.01,-0.01l-0.02 -0.02c-0.01,-0.01 -0.02,-0.03 -0.04,-0.04l-0.05 -0.05c-0.01,0 -0.01,0 -0.01,-0.01 -0.06,-0.04 -0.12,-0.08 -0.18,-0.12 -0.02,-0.01 -0.05,-0.02 -0.07,-0.03 0,0 -0.01,0 -0.01,-0.01 -0.04,-0.02 -0.08,-0.03 -0.12,-0.04l-0.11 -0.04c-0.08,-0.02 -0.16,-0.04 -0.24,-0.05 -0.07,-0.01 -0.15,-0.02 -0.22,-0.03 -0.03,0 -0.07,-0.01 -0.1,-0.01l-0.07 -0.01c-0.02,0 -0.07,0 -0.1,0 -0.01,0 -0.01,0 -0.02,0l-0.22 -0.01c-0.02,-0.01 -0.23,-0.01 -0.25,-0.01 -0.02,0 -0.02,0 -0.04,0 -0.01,0 -0.02,0 -0.03,0 -0.02,0 -0.03,0 -0.04,0l0 0z"/>
   <path class="fil0" d="M2.49 4.66l0 0.11c0,0.01 0,0.02 0.01,0.02l0.02 0c0.01,0 0.03,-0.01 0.05,-0.01 0.06,0 0.13,-0.01 0.19,-0.02 0.14,-0.02 0.27,-0.05 0.4,-0.1 0.05,-0.02 0.1,-0.04 0.16,-0.06 0.01,0 0.01,0 0.02,-0.01 0.05,-0.02 0.1,-0.04 0.15,-0.07 0.07,-0.03 0.13,-0.07 0.2,-0.11l0.1 -0.07 0.11 -0.08c0,-0.01 0.01,-0.01 0.02,-0.02 0,0 0,-0.01 0.01,-0.01 0.01,-0.01 0.03,-0.03 0.05,-0.04 0.01,-0.01 0.02,-0.02 0.03,-0.03l0.04 -0.04c0,0 0.01,0 0.01,-0.01l0.04 -0.04c0.01,-0.01 0.01,-0.01 0.01,-0.01 0.02,-0.02 0.03,-0.03 0.05,-0.05l0.06 -0.06c0,-0.01 0,-0.01 0,-0.01l0.03 -0.03c0.02,-0.03 0.05,-0.06 0.07,-0.09l0.02 -0.03c0,-0.01 0.01,-0.01 0.01,-0.01 0.02,-0.03 0.03,-0.05 0.05,-0.08 0,0 0,-0.01 0.01,-0.01 0.03,-0.05 0.13,-0.22 0.15,-0.28 0,0 0.01,-0.01 0.01,-0.02 0.01,-0.02 0.02,-0.05 0.03,-0.07 0.03,-0.08 0.05,-0.13 0.08,-0.21l0.03 -0.11c0.03,-0.12 0.05,-0.25 0.07,-0.37 0,-0.03 0.01,-0.07 0.01,-0.1l0 -0.04 -0.04 0c-0.03,0 -0.06,0 -0.1,0l-0.2 0.01c-0.01,0 -0.02,0 -0.04,0 0,0 0,0 -0.01,0 -0.01,0 -0.01,0 -0.02,0 -0.01,0 -0.01,0 -0.01,0 -0.01,0 -0.02,0 -0.02,0 -0.01,0 -0.02,0 -0.04,0 0,0 0,0 -0.01,0 -0.01,0 -0.01,0 -0.02,0 -0.01,0 -0.01,0 -0.01,0 -0.03,0 -0.07,0.01 -0.09,0.01l-0.13 0.01c-0.02,0 -0.04,0 -0.06,0.01 -0.04,0 -0.08,0.01 -0.12,0.01 -0.03,0 -0.05,0.01 -0.07,0.01 -0.02,0 -0.04,0.01 -0.06,0.01 -0.04,0.01 -0.08,0.01 -0.11,0.02 -0.04,0.01 -0.08,0.02 -0.12,0.03 -0.03,0.01 -0.08,0.02 -0.1,0.03 -0.07,0.03 -0.15,0.05 -0.21,0.09 -0.01,0 -0.01,0 -0.01,0.01 -0.01,0 -0.02,0 -0.02,0.01 -0.06,0.03 -0.1,0.06 -0.15,0.1 -0.04,0.03 -0.07,0.06 -0.11,0.1 0,0 0,0.01 -0.01,0.01l-0.05 0.06c-0.1,0.12 -0.16,0.25 -0.21,0.39 -0.05,0.15 -0.08,0.31 -0.1,0.46 0,0.02 -0.01,0.04 -0.01,0.06 0,0.02 0,0.04 0,0.07 -0.01,0.02 -0.01,0.04 -0.01,0.06 0,0.03 -0.01,0.11 -0.01,0.13l-0.01 0.16c0,0.01 0,0.02 0,0.02 0,0.01 0,0.01 0,0.02 0,0.03 -0.01,0.06 -0.01,0.1 0,0.01 0,0.02 0,0.03 0,0.03 0,0.05 0,0.07 0,0.01 0,0.02 0,0.04 0,0.01 0,0.02 0,0.03z"/>
  </g>
 </g>
</svg>
