<?xml version="1.0" encoding="UTF-8"?>
<!DOCTYPE svg PUBLIC "-//W3C//DTD SVG 1.1//EN" "http://www.w3.org/Graphics/SVG/1.1/DTD/svg11.dtd">
<!-- Creator: CorelDRAW 2020 (64-Bit) -->
<svg xmlns="http://www.w3.org/2000/svg" xml:space="preserve" width="148px" height="148px" version="1.1" style="shape-rendering:geometricPrecision; text-rendering:geometricPrecision; image-rendering:optimizeQuality; fill-rule:evenodd; clip-rule:evenodd"
viewBox="0 0 5.2 5.2"
 xmlns:xlink="http://www.w3.org/1999/xlink"
 xmlns:xodm="http://www.corel.com/coreldraw/odm/2003">
 <defs>
  <style type="text/css">
   <![CDATA[
    .fil1 {fill:white}
    .fil0 {fill:white;fill-rule:nonzero}
   ]]>
  </style>
 </defs>
 <g id="Слой_x0020_1">
  <metadata id="CorelCorpID_0Corel-Layer"/>
  <path class="fil0" d="M3.19 2.48l-1.49 0 0 -0.59 1.49 0c0.09,0 0.15,0.02 0.18,0.04 0.03,0.03 0.05,0.08 0.05,0.15l0 0.21c0,0.08 -0.02,0.13 -0.05,0.15 -0.03,0.03 -0.09,0.04 -0.18,0.04l0 0zm0.11 -1.15l-2.24 0 0 2.53 0.64 0 0 -0.82 1.17 0 0.55 0.82 0.71 0 -0.61 -0.82c0.23,-0.04 0.33,-0.11 0.41,-0.22 0.08,-0.11 0.13,-0.3 0.13,-0.54l0 -0.19c0,-0.14 -0.02,-0.26 -0.05,-0.34 -0.02,-0.09 -0.07,-0.17 -0.13,-0.24 -0.07,-0.06 -0.15,-0.11 -0.24,-0.14 -0.09,-0.02 -0.2,-0.04 -0.34,-0.04l0 0z"/>
  <path class="fil1" d="M1.29 0l2.61 0c0.72,0 1.3,0.58 1.3,1.29l0 2.61c0,0.72 -0.58,1.3 -1.3,1.3l-2.61 0c-0.71,0 -1.29,-0.58 -1.29,-1.3l0 -2.61c0,-0.71 0.58,-1.29 1.29,-1.29zm3.69 2.59c-0.23,-0.01 -0.45,-0.05 -0.66,-0.13 0,-0.06 0,-0.12 0,-0.18l0 -0.19c0,-0.16 -0.01,-0.3 -0.05,-0.42 -0.04,-0.13 -0.11,-0.24 -0.2,-0.34l0 -0.01 -0.01 0c-0.1,-0.09 -0.21,-0.16 -0.33,-0.2l-0.01 0 0 0c-0.13,-0.04 -0.27,-0.06 -0.42,-0.06l-0.27 0 0 0 -0.23 0c-0.11,-0.26 -0.18,-0.55 -0.2,-0.85l-1.31 0c-0.59,0 -1.08,0.49 -1.08,1.08l0 2.61c0,0.6 0.49,1.08 1.08,1.08l2.61 0c0.6,0 1.08,-0.48 1.08,-1.08l0 -1.31z"/>
 </g>
</svg>
