<?xml version="1.0" encoding="UTF-8"?>
<!DOCTYPE svg PUBLIC "-//W3C//DTD SVG 1.1//EN" "http://www.w3.org/Graphics/SVG/1.1/DTD/svg11.dtd">
<!-- Creator: CorelDRAW 2020 (64-Bit) -->
<svg xmlns="http://www.w3.org/2000/svg" xml:space="preserve" width="179px" height="151px" version="1.1" style="shape-rendering:geometricPrecision; text-rendering:geometricPrecision; image-rendering:optimizeQuality; fill-rule:evenodd; clip-rule:evenodd"
viewBox="0 0 6.76 5.69"
 xmlns:xlink="http://www.w3.org/1999/xlink"
 xmlns:xodm="http://www.corel.com/coreldraw/odm/2003">
 <defs>
  <style type="text/css">
   <![CDATA[
    .fil0 {fill:#FEFEFE}
   ]]>
  </style>
 </defs>
 <g id="Слой_x0020_1">
  <metadata id="CorelCorpID_0Corel-Layer"/>
  <path class="fil0" d="M6.27 0.03l-0.04 0.02 -1.93 0.75c0,0.04 0.01,0.03 -0.03,0.02l-0.74 0.28c0,0.04 0,0.02 -0.04,0.02 -0.85,0.3 -1.77,0.7 -2.63,1.03 -0.17,0.06 -0.78,0.25 -0.84,0.39 -0.08,0.2 0.07,0.29 0.22,0.33 0.39,0.12 1.12,0.31 1.42,0.42 0.13,0.05 0.13,0.17 0.2,0.41l0.44 1.41 0.02 0.04c0.04,0.14 0.17,0.26 0.35,0.2 0.18,-0.06 0.75,-0.8 0.93,-0.89l1.59 1.17c0.21,0.13 0.46,0.06 0.53,-0.27l0.64 -3.07 0.02 -0.06 0.27 -1.32c0.07,-0.32 0.34,-1.08 -0.38,-0.88zm-1.33 1.65l-0.02 0.03c-0.11,0.1 -0.26,0.21 -0.36,0.31l-1.45 1.29c-0.25,0.23 -0.46,0.31 -0.49,0.55 -0.01,0.11 -0.02,0.21 -0.03,0.32 -0.02,0.16 -0.02,0.49 -0.09,0.6 -0.08,-0.05 -0.52,-1.52 -0.47,-1.61 0.05,-0.06 0.69,-0.46 0.8,-0.51 0,-0.04 -0.01,-0.03 0.03,-0.03l2.34 -1.45c0.11,-0.07 0.26,-0.19 0.38,-0.16 0.02,0.14 -0.07,0.16 -0.28,0.35 -0.11,0.1 -0.24,0.21 -0.36,0.31z"/>
 </g>
</svg>
