<?xml version="1.0" encoding="UTF-8"?>
<!DOCTYPE svg PUBLIC "-//W3C//DTD SVG 1.1//EN" "http://www.w3.org/Graphics/SVG/1.1/DTD/svg11.dtd">
<!-- Creator: CorelDRAW 2020 (64-Bit) -->
<svg xmlns="http://www.w3.org/2000/svg" xml:space="preserve" width="160px" height="157px" version="1.1" style="shape-rendering:geometricPrecision; text-rendering:geometricPrecision; image-rendering:optimizeQuality; fill-rule:evenodd; clip-rule:evenodd"
viewBox="0 0 6.11 5.99"
 xmlns:xlink="http://www.w3.org/1999/xlink"
 xmlns:xodm="http://www.corel.com/coreldraw/odm/2003">
 <defs>
  <style type="text/css">
   <![CDATA[
    .fil0 {fill:#FEFEFE}
   ]]>
  </style>
 </defs>
 <g id="Слой_x0020_1">
  <metadata id="CorelCorpID_0Corel-Layer"/>
  <g id="_1818809912432">
   <path class="fil0" d="M2.85 0.97l0 0.95c0,0.21 0.31,0.17 0.31,0.03l0 -0.99c0,-0.14 -0.31,-0.15 -0.31,0.01zm-0.34 0.94l0 -0.95c0,-0.26 0.25,-0.39 0.53,-0.39 0.23,0 0.46,0.17 0.46,0.39l0 0.97c0,0.57 -0.99,0.58 -0.99,-0.02z"/>
   <path class="fil0" d="M4.43 1.91l0.01 -1.31 0.35 0.01 0 1.71 -0.35 -0.01 -0.01 -0.18c-0.06,0.04 -0.11,0.1 -0.18,0.14 -0.06,0.03 -0.16,0.08 -0.26,0.06 -0.08,-0.01 -0.14,-0.06 -0.17,-0.14 -0.03,-0.09 -0.02,-0.19 -0.02,-0.3l0 -1.29 0.34 0 0 1.37c0.02,0.07 0.07,0.06 0.12,0.06 0.06,-0.01 0.15,-0.07 0.17,-0.12z"/>
   <path class="fil0" d="M2.01 1.38l0 0.94 -0.39 0 0 -0.92c0,-0.05 -0.19,-0.61 -0.22,-0.7 -0.04,-0.11 -0.08,-0.23 -0.12,-0.35 -0.02,-0.06 -0.03,-0.11 -0.06,-0.17 -0.02,-0.06 -0.04,-0.12 -0.05,-0.18l0.37 0c0.01,0.02 0.03,0.08 0.04,0.11l0.22 0.81 0.04 0 0.24 -0.92 0.39 0 -0.35 1.02c-0.02,0.06 -0.11,0.31 -0.11,0.36z"/>
   <path class="fil0" d="M4.56 4.62c0.05,-0.02 0.49,-0.01 0.58,-0.01l0 -0.43c0.02,-0.3 -0.32,-0.52 -0.65,-0.39 -0.33,0.15 -0.26,0.52 -0.26,0.86 0,0.19 -0.01,0.38 0.05,0.51 0.07,0.14 0.17,0.21 0.33,0.23 0.18,0.02 0.33,-0.01 0.42,-0.11 0.12,-0.12 0.12,-0.23 0.12,-0.45l-0.33 0c0,0.09 0.01,0.18 -0.02,0.24 -0.02,0.05 -0.13,0.07 -0.19,0.02 -0.07,-0.05 -0.06,-0.33 -0.05,-0.47zm0 -0.45c0.01,-0.03 0.01,-0.13 0.13,-0.13 0.12,0 0.11,0.08 0.13,0.12 0.03,0.05 0.02,0.16 0.01,0.21 -0.05,0.01 -0.23,0.01 -0.28,0 0,-0.03 -0.01,-0.19 0.01,-0.2zm-0.53 1.09c0.08,-0.14 0.05,-0.47 0.05,-0.69 0,-0.32 0.07,-0.81 -0.31,-0.79 -0.17,0 -0.19,0.07 -0.28,0.14l0 -0.67 -0.3 0 0 2.1 0.3 0 0.01 -0.11c0.14,0.12 0.4,0.24 0.53,0.02zm-0.35 -0.14c-0.07,0 -0.18,-0.02 -0.18,-0.08l0 -0.93c0,-0.08 0.25,-0.15 0.25,0.05l0 0.85c0,0.04 -0.03,0.11 -0.07,0.11zm-1.62 -0.01c0,0.09 0.03,0.21 0.11,0.24 0.1,0.06 0.23,0.02 0.31,-0.03 0.03,-0.02 0.05,-0.03 0.08,-0.06 0.04,-0.02 0.05,-0.04 0.08,-0.06l0 0.16 0.31 0 0 -1.56 -0.31 0 0 1.15c0,0.07 -0.25,0.23 -0.25,0.07l0 -1.22 -0.33 0 0 1.31zm-1.2 -1.56l0.36 0 0 1.81 0.35 0 0 -1.81 0.36 0 0 -0.3 -1.07 0 0 0.3zm-0.86 1.28l0 -0.83c0,-0.19 0.04,-0.36 0.1,-0.49 0.13,-0.28 0.35,-0.47 0.63,-0.58 0.15,-0.06 0.32,-0.08 0.53,-0.08l3.59 0c0.2,0 0.39,0.02 0.53,0.08 0.13,0.05 0.28,0.13 0.37,0.23 0.03,0.02 0.04,0.04 0.07,0.07 0.03,0.02 0.05,0.05 0.07,0.08 0.14,0.19 0.22,0.42 0.22,0.69l0 0.83c0,0.18 -0.03,0.36 -0.09,0.48 -0.04,0.08 -0.1,0.19 -0.16,0.27l-0.11 0.11c-0.13,0.1 -0.11,0.11 -0.3,0.2 -0.12,0.06 -0.3,0.1 -0.47,0.1l-3.84 0c-0.27,0 -0.55,-0.1 -0.74,-0.26 -0.08,-0.08 -0.13,-0.13 -0.2,-0.23 -0.13,-0.2 -0.2,-0.4 -0.2,-0.67z"/>
  </g>
 </g>
</svg>
