<?xml version="1.0" encoding="UTF-8"?>
<!DOCTYPE svg PUBLIC "-//W3C//DTD SVG 1.1//EN" "http://www.w3.org/Graphics/SVG/1.1/DTD/svg11.dtd">
<!-- Creator: CorelDRAW 2020 (64-Bit) -->
<svg xmlns="http://www.w3.org/2000/svg" xml:space="preserve" width="544px" height="353px" version="1.1" style="shape-rendering:geometricPrecision; text-rendering:geometricPrecision; image-rendering:optimizeQuality; fill-rule:evenodd; clip-rule:evenodd"
viewBox="0 0 51.79 33.6"
 xmlns:xlink="http://www.w3.org/1999/xlink"
 xmlns:xodm="http://www.corel.com/coreldraw/odm/2003">
 <defs>
  <style type="text/css">
   <![CDATA[
    .fil0 {fill:#003058}
   ]]>
  </style>
 </defs>
 <g id="Слой_x0020_1">
  <metadata id="CorelCorpID_0Corel-Layer"/>
  <path class="fil0" d="M27.97 2.01l21.17 0c0.25,0 0.46,0.2 0.46,0.46l0 0c0,0.25 -0.21,0.45 -0.46,0.45l-0.7 0 0 25.61 0 0.02 2.9 0c0.25,0 0.45,0.2 0.45,0.46l0 0c0,0.25 -0.2,0.45 -0.45,0.45l-5.73 0 -2.82 0 -24.11 0 -2.82 0 -15.4 0c-0.25,0 -0.46,-0.2 -0.46,-0.45l0 0c0,-0.26 0.21,-0.46 0.46,-0.46l3.19 0 0 -0.02 0 -19.6c0,-0.19 0.12,-0.36 0.29,-0.43 0.01,0 0.02,-0.01 0.03,-0.01l7.88 -4.7 0 -2.88 -0.08 0c-0.25,0 -0.46,-0.2 -0.46,-0.45l0 0c0,-0.25 0.21,-0.46 0.46,-0.46l10.69 0c0.25,0 0.45,0.21 0.45,0.46l0 0c0,0.25 -0.2,0.45 -0.45,0.45l0 8.03 6.09 3.58 0 -9.6 -0.58 0c-0.25,0 -0.46,-0.2 -0.46,-0.45l0 0c0,-0.26 0.21,-0.46 0.46,-0.46zm-23.41 7.19l0 19.33 0 0.02 7.29 0 0 -0.02 0 -23.68 -7.29 4.35zm17.9 0.8l0 18.53 0 0.02 6.09 0 0 -0.02 0 -14.95 -6.09 -3.58zm-6.6 14.15l2.82 0c0.36,0 0.66,0.29 0.66,0.66l0 3.74 2.21 0 0 -0.02 0 -27.62 -8.79 0 0 27.62 0 0.02 2.44 0 0 -3.74c0,-0.37 0.29,-0.66 0.66,-0.66zm0.44 0.86l1.94 0c0.1,0 0.18,0.08 0.18,0.18l0 3.23c0,0.05 -0.02,0.1 -0.06,0.13l-2.18 0c-0.04,-0.03 -0.06,-0.08 -0.06,-0.13l0 -3.23c0,-0.1 0.08,-0.18 0.18,-0.18zm26.49 -2.48l2.82 0c0.37,0 0.66,0.3 0.66,0.66l0 5.36 1.26 0 0 -0.02 0 -25.61 -18.07 0 0 25.61 0 0.02 12.67 0 0 -5.36c0,-0.36 0.3,-0.66 0.66,-0.66zm0.44 0.86l1.94 0c0.1,0 0.18,0.08 0.18,0.18l0 4.85c0,0.05 -0.02,0.1 -0.05,0.13l-2.19 0c-0.04,-0.03 -0.06,-0.08 -0.06,-0.13l0 -4.85c0,-0.1 0.08,-0.18 0.18,-0.18zm-6.06 -0.86l2.83 0c0.36,0 0.66,0.3 0.66,0.66l0 2.78c0,0.37 -0.3,0.66 -0.66,0.66l-2.83 0c-0.36,0 -0.65,-0.29 -0.65,-0.66l0 -2.78c0,-0.36 0.29,-0.66 0.65,-0.66zm0.45 0.86l1.94 0c0.1,0 0.18,0.08 0.18,0.18l0 2.02c0,0.1 -0.08,0.18 -0.18,0.18l-1.94 0c-0.1,0 -0.18,-0.08 -0.18,-0.18l0 -2.02c0,-0.1 0.08,-0.18 0.18,-0.18zm-6.12 -0.86l2.82 0c0.37,0 0.66,0.3 0.66,0.66l0 2.78c0,0.37 -0.29,0.66 -0.66,0.66l-2.82 0c-0.36,0 -0.66,-0.29 -0.66,-0.66l0 -2.78c0,-0.36 0.3,-0.66 0.66,-0.66zm0.44 0.86l1.94 0c0.1,0 0.18,0.08 0.18,0.18l0 2.02c0,0.1 -0.08,0.18 -0.18,0.18l-1.94 0c-0.1,0 -0.18,-0.08 -0.18,-0.18l0 -2.02c0,-0.1 0.08,-0.18 0.18,-0.18zm10.85 -6.95l2.82 0c0.37,0 0.66,0.3 0.66,0.66l0 2.78c0,0.37 -0.29,0.66 -0.66,0.66l-2.82 0c-0.36,0 -0.66,-0.29 -0.66,-0.66l0 -2.78c0,-0.36 0.3,-0.66 0.66,-0.66zm0.44 0.86l1.94 0c0.1,0 0.18,0.08 0.18,0.18l0 2.02c0,0.1 -0.08,0.18 -0.18,0.18l-1.94 0c-0.1,0 -0.18,-0.08 -0.18,-0.18l0 -2.02c0,-0.1 0.08,-0.18 0.18,-0.18zm-6.06 -0.86l2.83 0c0.36,0 0.66,0.3 0.66,0.66l0 2.78c0,0.37 -0.3,0.66 -0.66,0.66l-2.83 0c-0.36,0 -0.65,-0.29 -0.65,-0.66l0 -2.78c0,-0.36 0.29,-0.66 0.65,-0.66zm0.45 0.86l1.94 0c0.1,0 0.18,0.08 0.18,0.18l0 2.02c0,0.1 -0.08,0.18 -0.18,0.18l-1.94 0c-0.1,0 -0.18,-0.08 -0.18,-0.18l0 -2.02c0,-0.1 0.08,-0.18 0.18,-0.18zm-6.12 -0.86l2.82 0c0.37,0 0.66,0.3 0.66,0.66l0 2.78c0,0.37 -0.29,0.66 -0.66,0.66l-2.82 0c-0.36,0 -0.66,-0.29 -0.66,-0.66l0 -2.78c0,-0.36 0.3,-0.66 0.66,-0.66zm0.44 0.86l1.94 0c0.1,0 0.18,0.08 0.18,0.18l0 2.02c0,0.1 -0.08,0.18 -0.18,0.18l-1.94 0c-0.1,0 -0.18,-0.08 -0.18,-0.18l0 -2.02c0,-0.1 0.08,-0.18 0.18,-0.18zm10.85 -6.93l2.82 0c0.37,0 0.66,0.3 0.66,0.66l0 2.78c0,0.36 -0.29,0.66 -0.66,0.66l-2.82 0c-0.36,0 -0.66,-0.3 -0.66,-0.66l0 -2.78c0,-0.36 0.3,-0.66 0.66,-0.66zm0.44 0.86l1.94 0c0.1,0 0.18,0.08 0.18,0.18l0 2.02c0,0.1 -0.08,0.18 -0.18,0.18l-1.94 0c-0.1,0 -0.18,-0.08 -0.18,-0.18l0 -2.02c0,-0.1 0.08,-0.18 0.18,-0.18zm-6.06 -0.86l2.83 0c0.36,0 0.66,0.3 0.66,0.66l0 2.78c0,0.36 -0.3,0.66 -0.66,0.66l-2.83 0c-0.36,0 -0.65,-0.3 -0.65,-0.66l0 -2.78c0,-0.36 0.29,-0.66 0.65,-0.66zm0.45 0.86l1.94 0c0.1,0 0.18,0.08 0.18,0.18l0 2.02c0,0.1 -0.08,0.18 -0.18,0.18l-1.94 0c-0.1,0 -0.18,-0.08 -0.18,-0.18l0 -2.02c0,-0.1 0.08,-0.18 0.18,-0.18zm-6.12 -0.86l2.82 0c0.37,0 0.66,0.3 0.66,0.66l0 2.78c0,0.36 -0.29,0.66 -0.66,0.66l-2.82 0c-0.36,0 -0.66,-0.3 -0.66,-0.66l0 -2.78c0,-0.36 0.3,-0.66 0.66,-0.66zm0.44 0.86l1.94 0c0.1,0 0.18,0.08 0.18,0.18l0 2.02c0,0.1 -0.08,0.18 -0.18,0.18l-1.94 0c-0.1,0 -0.18,-0.08 -0.18,-0.18l0 -2.02c0,-0.1 0.08,-0.18 0.18,-0.18zm10.85 -7.12l2.82 0c0.37,0 0.66,0.3 0.66,0.66l0 2.79c0,0.36 -0.29,0.65 -0.66,0.65l-2.82 0c-0.36,0 -0.66,-0.29 -0.66,-0.65l0 -2.79c0,-0.36 0.3,-0.66 0.66,-0.66zm0.44 0.86l1.94 0c0.1,0 0.18,0.09 0.18,0.18l0 2.02c0,0.1 -0.08,0.18 -0.18,0.18l-1.94 0c-0.1,0 -0.18,-0.08 -0.18,-0.18l0 -2.02c0,-0.09 0.08,-0.18 0.18,-0.18zm-6.06 -0.86l2.83 0c0.36,0 0.66,0.3 0.66,0.66l0 2.79c0,0.36 -0.3,0.65 -0.66,0.65l-2.83 0c-0.36,0 -0.65,-0.29 -0.65,-0.65l0 -2.79c0,-0.36 0.29,-0.66 0.65,-0.66zm0.45 0.86l1.94 0c0.1,0 0.18,0.09 0.18,0.18l0 2.02c0,0.1 -0.08,0.18 -0.18,0.18l-1.94 0c-0.1,0 -0.18,-0.08 -0.18,-0.18l0 -2.02c0,-0.09 0.08,-0.18 0.18,-0.18zm-6.12 -0.86l2.82 0c0.37,0 0.66,0.3 0.66,0.66l0 2.79c0,0.36 -0.29,0.65 -0.66,0.65l-2.82 0c-0.36,0 -0.66,-0.29 -0.66,-0.65l0 -2.79c0,-0.36 0.3,-0.66 0.66,-0.66zm0.44 0.86l1.94 0c0.1,0 0.18,0.09 0.18,0.18l0 2.02c0,0.1 -0.08,0.18 -0.18,0.18l-1.94 0c-0.1,0 -0.18,-0.08 -0.18,-0.18l0 -2.02c0,-0.09 0.08,-0.18 0.18,-0.18zm-25.22 6.77l2.82 0c0.37,0 0.66,0.29 0.66,0.66l0 3.98c0,0.36 -0.29,0.66 -0.66,0.66l-2.82 0c-0.36,0 -0.66,-0.3 -0.66,-0.66l0 -3.98c0,-0.37 0.3,-0.66 0.66,-0.66zm0.44 0.86l1.94 0c0.1,0 0.18,0.08 0.18,0.18l0 3.22c0,0.1 -0.08,0.18 -0.18,0.18l-1.94 0c-0.1,0 -0.18,-0.08 -0.18,-0.18l0 -3.22c0,-0.1 0.08,-0.18 0.18,-0.18zm-0.44 6.93l2.82 0c0.37,0 0.66,0.29 0.66,0.66l0 3.98c0,0.36 -0.29,0.66 -0.66,0.66l-2.82 0c-0.36,0 -0.66,-0.3 -0.66,-0.66l0 -3.98c0,-0.37 0.3,-0.66 0.66,-0.66zm0.44 0.86l1.94 0c0.1,0 0.18,0.08 0.18,0.18l0 3.22c0,0.1 -0.08,0.18 -0.18,0.18l-1.94 0c-0.1,0 -0.18,-0.08 -0.18,-0.18l0 -3.22c0,-0.1 0.08,-0.18 0.18,-0.18zm8.66 -3.43l2.83 0c0.36,0 0.66,0.29 0.66,0.66l0 3.98c0,0.36 -0.3,0.66 -0.66,0.66l-2.83 0c-0.36,0 -0.65,-0.3 -0.65,-0.66l0 -3.98c0,-0.37 0.29,-0.66 0.65,-0.66zm0.45 0.86l1.94 0c0.1,0 0.18,0.08 0.18,0.18l0 3.22c0,0.1 -0.08,0.18 -0.18,0.18l-1.94 0c-0.1,0 -0.18,-0.08 -0.18,-0.18l0 -3.22c0,-0.1 0.08,-0.18 0.18,-0.18zm-0.45 -7.99l2.83 0c0.36,0 0.66,0.3 0.66,0.66l0 3.99c0,0.36 -0.3,0.65 -0.66,0.65l-2.83 0c-0.36,0 -0.65,-0.29 -0.65,-0.65l0 -3.99c0,-0.36 0.29,-0.66 0.65,-0.66zm0.45 0.86l1.94 0c0.1,0 0.18,0.08 0.18,0.18l0 3.22c0,0.1 -0.08,0.18 -0.18,0.18l-1.94 0c-0.1,0 -0.18,-0.08 -0.18,-0.18l0 -3.22c0,-0.1 0.08,-0.18 0.18,-0.18zm-0.45 -8.08l2.83 0c0.36,0 0.66,0.3 0.66,0.66l0 3.99c0,0.36 -0.3,0.65 -0.66,0.65l-2.83 0c-0.36,0 -0.65,-0.29 -0.65,-0.65l0 -3.99c0,-0.36 0.29,-0.66 0.65,-0.66zm0.45 0.86l1.94 0c0.1,0 0.18,0.08 0.18,0.18l0 3.22c0,0.1 -0.08,0.18 -0.18,0.18l-1.94 0c-0.1,0 -0.18,-0.08 -0.18,-0.18l0 -3.22c0,-0.1 0.08,-0.18 0.18,-0.18zm9.01 20.31l0.87 0c0.25,0 0.45,0.21 0.45,0.46l0 0c0,0.25 -0.2,0.46 -0.45,0.46l-0.87 0c-0.25,0 -0.46,-0.21 -0.46,-0.46l0 0c0,-0.25 0.21,-0.46 0.46,-0.46zm0 -3.97l0.87 0c0.25,0 0.45,0.2 0.45,0.45l0 0c0,0.25 -0.2,0.46 -0.45,0.46l-0.87 0c-0.25,0 -0.46,-0.21 -0.46,-0.46l0 0c0,-0.25 0.21,-0.45 0.46,-0.45zm0 -4.27l0.87 0c0.25,0 0.45,0.2 0.45,0.45l0 0c0,0.25 -0.2,0.46 -0.45,0.46l-0.87 0c-0.25,0 -0.46,-0.2 -0.46,-0.46l0 0c0,-0.25 0.21,-0.45 0.46,-0.45zm-24.82 17.15l50.88 0c0.25,0 0.45,0.21 0.45,0.46l0 0c0,0.25 -0.2,0.45 -0.45,0.45l-50.88 0c-0.25,0 -0.46,-0.2 -0.46,-0.45l0 0c0,-0.25 0.21,-0.46 0.46,-0.46z"/>
 </g>
</svg>
