<?xml version="1.0" encoding="UTF-8"?>
<!DOCTYPE svg PUBLIC "-//W3C//DTD SVG 1.1//EN" "http://www.w3.org/Graphics/SVG/1.1/DTD/svg11.dtd">
<!-- Creator: CorelDRAW 2020 (64-Bit) -->
<svg xmlns="http://www.w3.org/2000/svg" xml:space="preserve" width="300px" height="300px" version="1.1" style="shape-rendering:geometricPrecision; text-rendering:geometricPrecision; image-rendering:optimizeQuality; fill-rule:evenodd; clip-rule:evenodd"
viewBox="0 0 38.98 39.04"
 xmlns:xlink="http://www.w3.org/1999/xlink"
 xmlns:xodm="http://www.corel.com/coreldraw/odm/2003">
 <defs>
  <style type="text/css">
   <![CDATA[
    .fil0 {fill:#003058}
   ]]>
  </style>
 </defs>
 <g id="Слой_x0020_1">
  <metadata id="CorelCorpID_0Corel-Layer"/>
  <path class="fil0" d="M9.15 2.59c-0.25,0.93 -2.46,2.56 -3.16,3.4 -0.33,0.4 -0.38,0.53 -0.76,0.91 -0.68,0.68 -1.79,2.18 -2.64,2.4 -0.39,-0.26 -2.59,-2.92 -2.59,-1.07 0,0.49 1.8,2.14 2.27,2.31 1.05,0.4 0.6,0.01 1.43,0.86 1.53,1.56 0.9,1.41 1.82,2.91 3.33,5.43 5.36,3.65 3.04,1.83 -1.79,-1.4 -1.93,-2.55 -2.79,-4.38 -0.36,-0.77 -1.32,-1.13 -1.81,-1.85l5.8 -5.95c1,0.67 1.33,1.56 2.65,1.78 3.92,0.64 4.19,1.77 6.77,4.21 0.56,0.54 0.74,0.45 0.95,1.34 -0.02,0.02 -0.06,0.03 -0.07,0.08l-0.54 0.53c-1.22,0 -1.41,-1.42 -2.39,-1.74 -0.86,-0.29 -1.19,0.58 -0.17,1.55l0.79 0.73c0.62,0.56 1,0.9 1.58,1.48 0.68,0.68 2.72,2.35 2.94,3.16l-0.92 0c-0.87,-1.8 -0.64,-1.22 -2.4,-1.72 -0.45,-0.13 -0.78,-0.62 -1.15,-0.99 -0.37,-0.38 -0.77,-0.95 -1.33,-0.95 -0.56,0 -0.12,-0.02 -0.4,0.21l-0.21 0.25c0.2,0.74 3.49,2.99 1.07,2.76 -1.3,-0.12 -1.24,-1.39 -2.29,-1.39 -1.32,0 0.3,1.67 0.76,1.98 -0.38,0.58 -0.45,0.54 -0.45,1.53 -0.01,-0.01 -2.6,-2.92 -2.6,-1.07 0,0.47 1.29,1.51 1.64,1.87 1.09,1.08 0.96,0.55 0.96,2.55 -0.43,-0.11 -2.08,-1.7 -2.49,-2.09 -0.43,-0.42 -1.12,-1.55 -1.77,-1.53 -2.18,0.06 2.21,3.54 2.58,4.08 -1.72,0.46 -1.22,3.87 -1.22,5.34 0,1.37 0.23,2.76 0.7,3.71 1.38,2.78 1.59,1.31 1.59,4.52 0,0.25 -1.52,2.9 0.15,2.9 0.76,0 0.61,-1.14 0.61,-1.68l9.3 0c0,0.69 -0.14,1.68 0.76,1.68 0.74,0 0.46,-1.18 0.46,-1.68 0,-1.28 -0.46,0.5 -0.46,-3.05 0,-0.75 0.87,-2.18 1.06,-3.05 0.2,-0.88 0.84,-3.35 -0.45,-3.35 -0.76,0 -0.37,2.14 -1.2,4.44 -0.83,2.34 -0.63,0.24 -0.63,3.79l-8.38 0 0 -2.28c0,-0.62 -2.14,-2.56 -2.14,-4.43l0 -5.33c0,-0.47 0.36,-0.61 0.76,-0.61 0.37,0 0.45,0.24 0.77,0.45 0,0.93 -0.34,2.9 0.61,2.9 0.8,0 0.61,-1.01 0.61,-1.83l-0.01 -5.19c0,-1.01 -0.22,-1.98 0.77,-1.98 1.01,0 0.61,2.63 0.61,3.36 0,1.83 -0.38,3.66 0.61,3.66 0.96,0 0.61,-2.63 0.61,-4.12 0,-2.84 -0.44,-3.84 0.76,-4.12l0.59 0.49 0.02 6.07c-0.01,0.89 -0.23,1.68 0.61,1.68 1.02,0 0.61,-2.5 0.61,-3.2 0,-0.67 0,-1.33 -0.01,-2 -0.01,-0.84 -0.03,-1.36 0.77,-1.36 1.67,0 -0.32,6.56 1.07,6.56 1.88,0 -0.19,-5.49 1.22,-5.49 0.87,0 0.91,0.51 0.92,1.36l-0.02 4.75c0,1.23 0.13,1.28 1.08,1.06 0.4,-1.7 0.16,-3.74 0.16,-5.49 1.3,0 1.75,-0.13 2.7,-1.11 1.54,-1.57 3.47,-2.67 4.36,-4.79 0.74,-1.77 0.25,-2.59 1.97,-3.98 0.7,-0.57 1.1,-0.21 1.98,-1.07 0.85,-0.82 1.91,-1.24 1.19,-2.32 -1.22,0.1 -1.48,1.42 -2.44,1.68 -0.51,-0.34 -1.25,-1.65 -1.93,-1.48 -1.25,0.31 0.25,1.48 0.55,1.93 -0.3,1.14 -1.52,0.97 -1.87,2.4 -0.31,1.31 -0.37,2.24 -1.11,3.31 -0.48,0.71 -1.56,1.73 -2.2,2.22 -1.34,1.02 -2.36,3.1 -3.36,1.22 0.35,-0.65 0.51,-0.74 1.03,-1.26 0.2,-0.2 0.52,-0.44 0.66,-0.58 0.58,-0.61 0.06,-1.37 -0.62,-1.06l-1.48 1.27c-0.31,0.27 -0.45,0.56 -0.65,0.87 -0.75,-0.42 -1.88,0.33 -1.62,-0.51 0.22,-0.71 1.13,-0.75 1.38,-1.43 0.21,-0.57 -0.18,-0.8 -0.68,-0.8 -0.39,0 -0.7,0.51 -1.07,0.76 -0.16,-0.31 -0.13,-0.28 -0.35,-0.56 -0.31,-0.4 -0.26,-0.09 -0.41,-0.66 0.53,-0.14 1.2,-0.8 0.7,-1.31 -0.62,-0.61 -1.2,0.27 -1.61,0.55 -0.58,-0.39 -1.33,-0.79 -1.53,-1.53 1.38,-0.37 1.35,-1.95 0.76,-3.05 1.63,-1.09 2.17,-2.61 5.08,-3.77 1.44,-0.58 2.32,-0.69 3.31,-2.18 0.77,0.52 1.07,1.16 1.71,1.8 0.33,0.32 0.53,0.48 0.82,0.86 1.3,1.72 2.12,0.52 1.41,-0.33 -0.76,-0.9 -2.9,-2.66 -3.18,-3.7 3.2,-2.14 1.81,-3.76 -0.8,-0.81 -0.5,0.57 -0.39,1.07 -0.98,1.62 -0.74,0.68 -1.4,1.15 -2.36,1.46 -3.48,1.12 -4.04,3.14 -5.92,4.14 -0.45,-0.3 -0.89,-0.8 -1.4,-1.2 -1.73,-1.38 -2.06,-2.5 -4.83,-2.95 -0.86,-0.13 -1.4,-0.07 -1.98,-0.61 -0.22,-0.21 -1.16,-1.15 -1.27,-1.33 -0.42,-0.74 -0.22,-0.81 -1.01,-1.58 -0.42,-0.41 -0.96,-1.18 -1.56,-1.18 -1.83,0 0.99,2.25 1.22,2.59z"/>
 </g>
</svg>
