<?xml version="1.0" encoding="UTF-8"?>
<!DOCTYPE svg PUBLIC "-//W3C//DTD SVG 1.1//EN" "http://www.w3.org/Graphics/SVG/1.1/DTD/svg11.dtd">
<!-- Creator: CorelDRAW 2020 (64-Bit) -->
<svg xmlns="http://www.w3.org/2000/svg" xml:space="preserve" width="300px" height="287px" version="1.1" style="shape-rendering:geometricPrecision; text-rendering:geometricPrecision; image-rendering:optimizeQuality; fill-rule:evenodd; clip-rule:evenodd"
viewBox="0 0 460.99 440.48"
 xmlns:xlink="http://www.w3.org/1999/xlink"
 xmlns:xodm="http://www.corel.com/coreldraw/odm/2003">
 <defs>
  <style type="text/css">
   <![CDATA[
    .fil0 {fill:#003159}
   ]]>
  </style>
 </defs>
 <g id="Слой_x0020_1">
  <metadata id="CorelCorpID_0Corel-Layer"/>
  <g id="_1445090465168">
   <path class="fil0" d="M321.96 300.67l33.29 0c0,58.55 -11.74,46.99 48.95,46.99 12.32,0 7.84,-23.88 7.84,-48.95l33.28 0 0 125.32 -123.36 0 0 -123.36zm-140.99 3.91c0,-8.7 15.2,-5.87 35.43,-5.87 0.15,7.99 -0.61,25.55 0.97,37.32 0.93,6.89 1.24,11.96 7.96,11.63 15.89,0.04 28.99,0.7 35.97,0.7 10.12,0 11.39,-1.84 11.39,-11.49 -0.01,-7.1 0.31,-18.71 0.31,-36.2l33.29 0 0 123.36 -125.32 0 0 -119.45zm48.95 -3.91l27.42 0 0 33.29 -27.42 0 0 -33.29zm139.04 27.41l0 -27.41 27.41 0 0 33.29 -21.54 0c-4.51,0 -5.87,-1.37 -5.87,-5.88zm-117.5 -168.4l33.29 0c0,58.55 -9.6,48.95 48.96,48.95 12.31,0 7.83,-23.88 7.83,-48.95l33.29 0 0 125.32 -123.37 0 0 -125.32zm48.96 0l25.45 0 0 33.29 -25.45 0 0 -33.29zm-64.62 -5.88l0 131.2 -62.66 0c-4.52,0 -5.88,1.36 -5.88,5.88l0 140.99c0,6.87 8.69,7.83 15.67,7.83l264.35 0c9.15,0 13.71,-4.57 13.71,-13.71l0 -129.24c0,-6.01 -1.81,-11.75 -7.83,-11.75l-62.66 0c0,-27 2.61,-119.4 -1.96,-139.03 -39.71,0 -79.87,0.1 -119.45,0 -11.49,-0.03 -33.29,-3.98 -33.29,7.83z"/>
   <path class="fil0" d="M28.23 151.84l0 280.03c0,12.25 42.64,7.83 60.7,7.83 6.98,0 15.67,-0.96 15.67,-7.83l0 -223.24 111.62 0c6.12,0 5.54,-3.51 7.83,-7.83 -3.18,-4.74 -5.74,-7.83 -13.71,-7.83l-103.78 0c-6.98,0 -15.67,0.95 -15.67,7.83l0 223.23 -48.95 0 0 -272.19c0,-8.35 -13.71,-8.35 -13.71,0z"/>
   <path class="fil0" d="M4.73 145.97c15.08,0 214.02,-129.24 225.19,-129.24 7.33,0 215.12,129.24 223.24,129.24 7.68,0 8.36,-7.53 4.53,-12.1l-105.25 -63.42c-20.74,-12.48 -39.77,-23.38 -60.22,-35.73 -73.36,-44.28 -55.55,-41.09 -92.52,-18.84l-195.46 116.06c-6.11,5.01 -5.32,14.03 0.49,14.03z"/>
   <path class="fil0" d="M190.76 91.14l78.33 0 0 11.75 -78.33 0 0 -11.75zm-17.62 5.87c0,9.38 8.68,21.54 21.53,21.54 25.01,0 74.99,4.57 85.67,-6.37 12.81,-13.13 3.71,-36.71 -15.17,-36.71 -25,0 -74.98,-4.56 -85.66,6.38 -2.47,2.53 -6.37,11.29 -6.37,15.16z"/>
   <path class="fil0" d="M417.91 151.84l0 119.45c0,5.95 3.4,6.65 7.83,7.84 3.05,-2.04 5.88,-2.6 5.88,-7.84l0 -119.45c0,-8.35 -13.71,-8.35 -13.71,0z"/>
  </g>
 </g>
</svg>
