<?xml version="1.0" encoding="UTF-8"?>
<!DOCTYPE svg PUBLIC "-//W3C//DTD SVG 1.1//EN" "http://www.w3.org/Graphics/SVG/1.1/DTD/svg11.dtd">
<!-- Creator: CorelDRAW 2020 (64-Bit) -->
<svg xmlns="http://www.w3.org/2000/svg" xml:space="preserve" width="300px" height="295px" version="1.1" style="shape-rendering:geometricPrecision; text-rendering:geometricPrecision; image-rendering:optimizeQuality; fill-rule:evenodd; clip-rule:evenodd"
viewBox="0 0 34.09 33.56"
 xmlns:xlink="http://www.w3.org/1999/xlink"
 xmlns:xodm="http://www.corel.com/coreldraw/odm/2003">
 <defs>
  <style type="text/css">
   <![CDATA[
    .fil0 {fill:#003058}
   ]]>
  </style>
 </defs>
 <g id="Слой_x0020_1">
  <metadata id="CorelCorpID_0Corel-Layer"/>
  <g id="_1445093019056">
   <path class="fil0" d="M12.36 31.01l9.09 0c0.15,0.32 0.18,0.54 0.38,0.9 0.18,0.34 0.29,0.46 0.47,0.8l-10.65 0c0.17,-0.65 0.62,-0.6 0.71,-1.7zm9.94 -0.43c0,-2.97 4.4,-3.06 4.4,0 0,0.77 -0.31,1.23 -0.79,1.62 -0.16,0.13 -0.19,0.14 -0.34,0.23 -1.51,0.88 -3.27,-0.42 -3.27,-1.85zm-12.93 2.13c-2.86,0 -2.86,-4.4 0,-4.4 2.93,0 2.93,4.4 0,4.4zm11.79 -2.7l-6.53 0c0,-2.47 -0.21,-13.84 0.14,-15.34 1.33,-0.31 4.82,-0.14 6.39,-0.14 0,1.03 -0.25,2.98 0.71,2.98 0.89,0 1.18,-0.92 1.99,-1.13 0,0 2.42,2.15 2.42,0.56l0 -2.41 5.96 0c0.33,0 0.71,0.38 0.71,0.71l0 14.06c0,0.34 -0.23,0.42 -0.42,0.71l-4.97 0c-0.71,-3.04 -4.47,-3.41 -5.73,-0.9 -0.23,0.47 -0.18,0.9 -0.67,0.9zm-16.05 -3.83l0.57 0 0 0.42 -0.57 0 0 -0.42zm0 -2.13c0,-0.6 0.51,-1.04 0.84,-1.44 3.8,-4.66 2.05,-3.82 7.83,-3.82l0 11.22 -1.42 0c-0.28,-3.36 -5.69,-3.33 -5.97,0 -0.67,0 -0.63,-0.02 -1.13,-0.14 -0.18,-0.77 -0.15,-1.32 -0.15,-2.27 0.95,-0.22 1.42,-0.2 1.42,-1.28 0,-1.04 -0.73,-1 -1.42,-1l0 -1.27zm17.05 -7.53l0 -1.99 3.27 0 0 1.99c-0.38,-0.25 -1.18,-1.07 -1.59,-1.1 -0.48,-0.04 -1.29,0.84 -1.68,1.1zm-8.38 -1.42l0 2.84 -4.41 0c-1.01,0 -1.99,1.53 -2.82,2.57 -2.96,3.75 -2.29,1.81 -2.29,8.93 0,1.04 1.08,1.54 2.13,1.57 0.07,0.79 0.51,1.19 0.85,1.7 -0.79,0 -1.63,-0.03 -2.43,-0.01 -1.39,0.02 -0.96,0.86 -0.41,0.86l29.26 0c0.33,0 0.43,-0.1 0.43,-0.42 0,-0.71 -2.04,-0.43 -3.41,-0.43 -1.32,0 -2.65,0 -3.98,0 0.46,-0.68 0.63,-0.72 0.86,-1.7 1.28,0 2.71,0.06 3.97,0 1.13,-0.05 2.28,-0.49 2.28,-1.71l0 -14.06c0,-0.58 -0.38,-1.1 -0.79,-1.35 -0.47,-0.29 -1.08,-0.35 -1.77,-0.35l-14.92 0c-1.25,0 -2.55,0.34 -2.55,1.56z"/>
   <path class="fil0" d="M0.85 12.68l0.14 -2.27c0.09,-0.54 0.25,-0.91 0.29,-1.42 2.82,0 3.96,2.67 5.96,3.7 0.94,0.48 1.43,0.32 2.13,1.13 -0.6,2.6 -4.93,0.85 -4.97,0.85 -0.64,0 -1.23,0.57 -1.37,1.19 -0.14,0.64 0.1,0.52 -0.33,2.36l-0.29 0c-0.24,-1.07 -1.56,-2.63 -1.56,-5.54zm8.67 -9.09c0,0.7 0.23,1.76 0,1.99 -0.36,0.36 -1.11,-0.28 -2.13,-0.28 -0.97,0 -2.62,2.62 -4.83,1.13 0.14,-0.59 1.08,-1.71 1.52,-2.17l2.16 -1.67c1.97,-1.19 3.71,-1.7 6.54,-1.7 0.49,0 0.55,0.11 1,0.15 0.71,3.05 -1.22,0.85 -2.42,0.85 -1.06,0 -1.84,0.85 -1.84,1.7zm-9.52 8.1c0,3.55 0.86,6.38 3.23,8.85 0.54,0.56 0.35,0.54 1.03,0.38 -0.02,-0.73 -0.07,-0.55 -0.45,-0.97 -0.22,-0.24 -0.52,-0.62 -0.69,-0.88l0.38 -0.62c0.12,-0.29 0.19,-0.54 0.26,-0.87 0.14,-0.69 0.06,-1.26 0.22,-1.91 1.23,-0.29 1.37,0.77 3.67,0.41 2.41,-0.39 3.97,-2.82 0.75,-3.84 -2.83,-0.9 -3.23,-3.81 -6.7,-4.1 0.05,-0.6 0.17,-0.47 0.29,-1 3.58,1.9 4.43,-0.99 5.54,-0.99 0.61,0 2.32,1.24 2.9,-0.52 0.3,-0.93 -0.76,-2.89 0.93,-2.89 0.83,0 1.38,1.02 2.34,0.78 1.04,-0.26 1.07,-1.09 1.07,-2.34 1.94,0.45 4.34,1.73 5.65,3.15 2.67,2.92 2.6,5.08 3.02,5.94 -0.58,-0.14 -1.14,-0.51 -1.37,-1.05 -0.5,-1.15 -0.63,-4.07 -3.75,-4.07 -1.32,0 -1.7,1.14 -1.7,2.28 0,1.64 2.72,2.77 2.27,4.68 -0.74,-0.01 -0.72,-0.19 -1.03,-0.67 -0.85,-1.36 -1.45,-2.59 -2.8,-2.59 -1.11,0 -2.13,1.38 -2.13,2.55 0,1.07 -0.17,2.05 0.85,2.14 0.22,-0.47 0,-1.18 0,-2.14 0,-0.63 0.61,-1.7 1.28,-1.7 1.61,0 1.75,3.27 3.69,3.27 0.89,0 1.14,-0.9 1.14,-1.28 0,-2.06 -2.42,-2.73 -2.42,-4.69 0,-1.48 1.99,-1.21 2.87,-0.03 0.79,1.07 0.46,2.8 1.96,3.72 0.77,0.47 0.81,0.15 1.27,0.87 0.18,0.27 -0.08,0.41 0.43,0.41 0.54,0 0.48,-0.43 0.41,-0.94 -0.38,-2.79 -1.39,-5.24 -3.35,-7.19 -3.95,-3.92 -9.08,-4.9 -14.1,-2.66 -3.72,1.65 -6.96,6.14 -6.96,10.51z"/>
   <path class="fil0" d="M25.28 4.87c0,-2.17 1.76,-3.98 3.98,-3.98 1.89,0 3.84,1.59 3.84,3.41 0,1.84 -0.49,2.47 -1.59,4.09 -0.36,0.54 -1.84,2.46 -2.25,2.73 -0.81,-0.54 -3.98,-4.73 -3.98,-6.25zm-0.85 -0.14c0,1.51 1.21,3.16 1.85,4.12 0.41,0.63 0.82,1.12 1.28,1.7 1.42,1.83 1.83,2.41 4.37,-1.3 0.69,-1.01 1.56,-2.16 1.93,-3.47 1.29,-4.68 -5.01,-7.68 -8.11,-4.28 -0.63,0.69 -1.32,1.96 -1.32,3.23z"/>
   <path class="fil0" d="M9.8 20.64l2.13 0 0 3.12 -4.4 0c0.25,-0.94 2.06,-2.33 2.27,-3.12zm-3.41 3.26c0,0.34 0.38,0.71 0.71,0.71l4.69 0c1.4,0 0.99,-1.31 0.99,-3.97 0,-0.39 -0.06,-0.39 -0.14,-0.71 -1.06,-0.25 -1.58,-0.15 -2.84,-0.15 -0.6,0 -3.41,3.82 -3.41,4.12z"/>
   <path class="fil0" d="M16.76 25.61l3.84 0 0 1.28 -3.84 0 0 -1.28zm-0.71 -0.71c-0.15,0.64 -0.51,2.84 0.57,2.84l3.98 0c1.11,0 0.85,-0.63 0.85,-2.42 0,-0.33 -0.24,-0.56 -0.57,-0.56 -0.91,0 -4.15,-0.12 -4.83,0.14z"/>
   <path class="fil0" d="M28.98 3.17c1.94,0 1.73,1.74 1.24,2.23 -0.91,0.91 -2.17,0.3 -2.29,-0.73 -0.1,-0.8 0.54,-1.5 1.05,-1.5zm0.28 3.55c2.48,0 3.33,-4.41 -0.28,-4.41 -1.02,0 -2.02,1.26 -1.96,2.25 0.07,1.07 1.05,2.16 2.24,2.16z"/>
   <path class="fil0" d="M8.95 30.44c0.31,-0.46 0.53,-0.44 0.85,0 -0.08,0.31 -0.03,0.42 -0.43,0.42 -0.51,0 -0.27,-0.13 -0.42,-0.42zm-0.85 0c0,1.74 2.55,1.9 2.55,0 0,-1.69 -2.55,-1.54 -2.55,0z"/>
   <path class="fil0" d="M25 30.44c-0.92,1.74 -1.35,-1.42 0,0zm-1.71 0c0,2.11 2.56,1.45 2.56,0.14 0,-1.64 -2.56,-1.91 -2.56,-0.14z"/>
   <path class="fil0" d="M9.66 17.51c0.69,-0.5 0.06,-0.77 0.99,-0.85 -0.05,0.61 -0.26,0.81 0.43,0.99 0.94,-0.69 0.16,-1.84 -0.57,-1.84 -0.89,0 -2.08,1.41 -0.85,1.7z"/>
   <path class="fil0" d="M10.94 25.75c0,0.55 0.36,0.43 1.28,0.43 0.38,0 0.42,-0.21 0.56,-0.43 -0.35,-0.52 -0.24,-0.43 -1.42,-0.43 -0.32,0 -0.42,0.1 -0.42,0.43z"/>
  </g>
 </g>
</svg>
