<?xml version="1.0" encoding="UTF-8"?>
<!DOCTYPE svg PUBLIC "-//W3C//DTD SVG 1.1//EN" "http://www.w3.org/Graphics/SVG/1.1/DTD/svg11.dtd">
<!-- Creator: CorelDRAW 2020 (64-Bit) -->
<svg xmlns="http://www.w3.org/2000/svg" xml:space="preserve" width="250px" height="162px" version="1.1" style="shape-rendering:geometricPrecision; text-rendering:geometricPrecision; image-rendering:optimizeQuality; fill-rule:evenodd; clip-rule:evenodd"
viewBox="0 0 23.8 15.44"
 xmlns:xlink="http://www.w3.org/1999/xlink"
 xmlns:xodm="http://www.corel.com/coreldraw/odm/2003">
 <defs>
  <style type="text/css">
   <![CDATA[
    .fil0 {fill:#003058}
   ]]>
  </style>
 </defs>
 <g id="Слой_x0020_1">
  <metadata id="CorelCorpID_0Corel-Layer"/>
  <path class="fil0" d="M12.85 0.92l9.73 0c0.12,0 0.21,0.1 0.21,0.21l0 0c0,0.12 -0.09,0.21 -0.21,0.21l-0.32 0 0 11.77 0 0.01 1.33 0c0.12,0 0.21,0.09 0.21,0.21l0 0c0,0.11 -0.09,0.21 -0.21,0.21l-2.63 0 -1.3 0 -11.07 0 -1.3 0 -7.08 0c-0.12,0 -0.21,-0.1 -0.21,-0.21l0 0c0,-0.12 0.09,-0.21 0.21,-0.21l1.47 0 0 -0.01 0 -9.01c0,-0.09 0.05,-0.16 0.13,-0.19 0,0 0.01,-0.01 0.01,-0.01l3.63 -2.16 0 -1.32 -0.04 0c-0.12,0 -0.21,-0.1 -0.21,-0.21l0 0c0,-0.12 0.09,-0.21 0.21,-0.21l4.91 0c0.12,0 0.21,0.09 0.21,0.21l0 0c0,0.11 -0.09,0.21 -0.21,0.21l0 3.69 2.8 1.65 0 -4.42 -0.27 0c-0.11,0 -0.21,-0.09 -0.21,-0.21l0 0c0,-0.11 0.1,-0.21 0.21,-0.21zm-10.76 3.31l0 8.88 0 0.01 3.36 0 0 -0.01 0 -10.88 -3.36 2zm8.23 0.37l0 8.51 0 0.01 2.8 0 0 -0.01 0 -6.87 -2.8 -1.64zm-3.03 6.5l1.3 0c0.16,0 0.3,0.13 0.3,0.3l0 1.72 1.01 0 0 -0.01 0 -12.69 -4.03 0 0 12.69 -0.01 0.01 1.12 0 0 -1.72c0,-0.17 0.14,-0.3 0.31,-0.3zm0.2 0.39l0.89 0c0.05,0 0.08,0.04 0.08,0.09l0 1.48c0,0.02 -0.01,0.05 -0.02,0.06l-1.01 0c-0.01,-0.01 -0.02,-0.04 -0.02,-0.06l0 -1.48c0,-0.05 0.04,-0.09 0.08,-0.09zm12.17 -1.14l1.3 0c0.17,0 0.31,0.14 0.31,0.31l0 2.46 0.57 0 0 -0.01 0 -11.77 -8.3 0 0 11.77 0 0.01 5.82 0 0 -2.46c0,-0.17 0.14,-0.31 0.3,-0.31zm0.21 0.4l0.89 0c0.04,0 0.08,0.04 0.08,0.08l0 2.23c0,0.02 -0.01,0.05 -0.02,0.06l-1.01 0c-0.02,-0.01 -0.03,-0.04 -0.03,-0.06l0 -2.23c0,-0.04 0.04,-0.08 0.09,-0.08zm-2.79 -0.4l1.3 0c0.17,0 0.31,0.14 0.31,0.31l0 1.28c0,0.16 -0.14,0.3 -0.31,0.3l-1.3 0c-0.16,0 -0.3,-0.14 -0.3,-0.3l0 -1.28c0,-0.17 0.14,-0.31 0.3,-0.31zm0.21 0.4l0.89 0c0.04,0 0.08,0.04 0.08,0.08l0 0.93c0,0.05 -0.04,0.08 -0.08,0.08l-0.89 0c-0.05,0 -0.09,-0.03 -0.09,-0.08l0 -0.93c0,-0.04 0.04,-0.08 0.09,-0.08zm-2.81 -0.4l1.29 0c0.17,0 0.31,0.14 0.31,0.31l0 1.28c0,0.16 -0.14,0.3 -0.31,0.3l-1.29 0c-0.17,0 -0.31,-0.14 -0.31,-0.3l0 -1.28c0,-0.17 0.14,-0.31 0.31,-0.31zm0.2 0.4l0.89 0c0.05,0 0.08,0.04 0.08,0.08l0 0.93c0,0.05 -0.03,0.08 -0.08,0.08l-0.89 0c-0.05,0 -0.08,-0.03 -0.08,-0.08l0 -0.93c0,-0.04 0.03,-0.08 0.08,-0.08zm4.98 -3.2l1.3 0c0.17,0 0.31,0.14 0.31,0.31l0 1.28c0,0.16 -0.14,0.3 -0.31,0.3l-1.3 0c-0.16,0 -0.3,-0.14 -0.3,-0.3l0 -1.28c0,-0.17 0.14,-0.31 0.3,-0.31zm0.21 0.4l0.89 0c0.04,0 0.08,0.04 0.08,0.08l0 0.93c0,0.05 -0.04,0.08 -0.08,0.08l-0.89 0c-0.05,0 -0.09,-0.03 -0.09,-0.08l0 -0.93c0,-0.04 0.04,-0.08 0.09,-0.08zm-2.79 -0.4l1.3 0c0.17,0 0.31,0.14 0.31,0.31l0 1.28c0,0.16 -0.14,0.3 -0.31,0.3l-1.3 0c-0.16,0 -0.3,-0.14 -0.3,-0.3l0 -1.28c0,-0.17 0.14,-0.31 0.3,-0.31zm0.21 0.4l0.89 0c0.04,0 0.08,0.04 0.08,0.08l0 0.93c0,0.05 -0.04,0.08 -0.08,0.08l-0.89 0c-0.05,0 -0.09,-0.03 -0.09,-0.08l0 -0.93c0,-0.04 0.04,-0.08 0.09,-0.08zm-2.81 -0.4l1.29 0c0.17,0 0.31,0.14 0.31,0.31l0 1.28c0,0.16 -0.14,0.3 -0.31,0.3l-1.29 0c-0.17,0 -0.31,-0.14 -0.31,-0.3l0 -1.28c0,-0.17 0.14,-0.31 0.31,-0.31zm0.2 0.4l0.89 0c0.05,0 0.08,0.04 0.08,0.08l0 0.93c0,0.05 -0.03,0.08 -0.08,0.08l-0.89 0c-0.05,0 -0.08,-0.03 -0.08,-0.08l0 -0.93c0,-0.04 0.03,-0.08 0.08,-0.08zm4.98 -3.18l1.3 0c0.17,0 0.31,0.13 0.31,0.3l0 1.28c0,0.16 -0.14,0.3 -0.31,0.3l-1.3 0c-0.16,0 -0.3,-0.14 -0.3,-0.3l0 -1.28c0,-0.17 0.14,-0.3 0.3,-0.3zm0.21 0.39l0.89 0c0.04,0 0.08,0.04 0.08,0.08l0 0.93c0,0.05 -0.04,0.08 -0.08,0.08l-0.89 0c-0.05,0 -0.09,-0.03 -0.09,-0.08l0 -0.93c0,-0.04 0.04,-0.08 0.09,-0.08zm-2.79 -0.39l1.3 0c0.17,0 0.31,0.13 0.31,0.3l0 1.28c0,0.16 -0.14,0.3 -0.31,0.3l-1.3 0c-0.16,0 -0.3,-0.14 -0.3,-0.3l0 -1.28c0,-0.17 0.14,-0.3 0.3,-0.3zm0.21 0.39l0.89 0c0.04,0 0.08,0.04 0.08,0.08l0 0.93c0,0.05 -0.04,0.08 -0.08,0.08l-0.89 0c-0.05,0 -0.09,-0.03 -0.09,-0.08l0 -0.93c0,-0.04 0.04,-0.08 0.09,-0.08zm-2.81 -0.39l1.29 0c0.17,0 0.31,0.13 0.31,0.3l0 1.28c0,0.16 -0.14,0.3 -0.31,0.3l-1.29 0c-0.17,0 -0.31,-0.14 -0.31,-0.3l0 -1.28c0,-0.17 0.14,-0.3 0.31,-0.3zm0.2 0.39l0.89 0c0.05,0 0.08,0.04 0.08,0.08l0 0.93c0,0.05 -0.03,0.08 -0.08,0.08l-0.89 0c-0.05,0 -0.08,-0.03 -0.08,-0.08l0 -0.93c0,-0.04 0.03,-0.08 0.08,-0.08zm4.98 -3.27l1.3 0c0.17,0 0.31,0.14 0.31,0.3l0 1.28c0,0.17 -0.14,0.31 -0.31,0.31l-1.3 0c-0.16,0 -0.3,-0.14 -0.3,-0.31l0 -1.28c0,-0.16 0.14,-0.3 0.3,-0.3zm0.21 0.4l0.89 0c0.04,0 0.08,0.03 0.08,0.08l0 0.93c0,0.04 -0.04,0.08 -0.08,0.08l-0.89 0c-0.05,0 -0.09,-0.04 -0.09,-0.08l0 -0.93c0,-0.05 0.04,-0.08 0.09,-0.08zm-2.79 -0.4l1.3 0c0.17,0 0.31,0.14 0.31,0.3l0 1.28c0,0.17 -0.14,0.31 -0.31,0.31l-1.3 0c-0.16,0 -0.3,-0.14 -0.3,-0.31l0 -1.28c0,-0.16 0.14,-0.3 0.3,-0.3zm0.21 0.4l0.89 0c0.04,0 0.08,0.03 0.08,0.08l0 0.93c0,0.04 -0.04,0.08 -0.08,0.08l-0.89 0c-0.05,0 -0.09,-0.04 -0.09,-0.08l0 -0.93c0,-0.05 0.04,-0.08 0.09,-0.08zm-2.81 -0.4l1.29 0c0.17,0 0.31,0.14 0.31,0.3l0 1.28c0,0.17 -0.14,0.31 -0.31,0.31l-1.29 0c-0.17,0 -0.31,-0.14 -0.31,-0.31l0 -1.28c0,-0.16 0.14,-0.3 0.31,-0.3zm0.2 0.4l0.89 0c0.05,0 0.08,0.03 0.08,0.08l0 0.93c0,0.04 -0.03,0.08 -0.08,0.08l-0.89 0c-0.05,0 -0.08,-0.04 -0.08,-0.08l0 -0.93c0,-0.05 0.03,-0.08 0.08,-0.08zm-11.59 3.1l1.3 0c0.16,0 0.3,0.14 0.3,0.31l0 1.83c0,0.16 -0.14,0.3 -0.3,0.3l-1.3 0c-0.17,0 -0.3,-0.14 -0.3,-0.3l0 -1.83c0,-0.17 0.13,-0.31 0.3,-0.31zm0.2 0.4l0.89 0c0.05,0 0.09,0.04 0.09,0.08l0 1.48c0,0.05 -0.04,0.09 -0.09,0.09l-0.89 0c-0.04,0 -0.08,-0.04 -0.08,-0.09l0 -1.48c0,-0.04 0.04,-0.08 0.08,-0.08zm-0.2 3.18l1.3 0c0.16,0 0.3,0.14 0.3,0.31l0 1.83c0,0.16 -0.14,0.3 -0.3,0.3l-1.3 0c-0.17,0 -0.3,-0.14 -0.3,-0.3l0 -1.83c0,-0.17 0.13,-0.31 0.3,-0.31zm0.2 0.4l0.89 0c0.05,0 0.09,0.04 0.09,0.08l0 1.48c0,0.05 -0.04,0.08 -0.09,0.08l-0.89 0c-0.04,0 -0.08,-0.03 -0.08,-0.08l0 -1.48c0,-0.04 0.04,-0.08 0.08,-0.08zm3.98 -1.58l1.3 0c0.17,0 0.3,0.14 0.3,0.31l0 1.83c0,0.16 -0.13,0.3 -0.3,0.3l-1.3 0c-0.16,0 -0.3,-0.14 -0.3,-0.3l0 -1.83c0,-0.17 0.14,-0.31 0.3,-0.31zm0.21 0.4l0.89 0c0.04,0 0.08,0.04 0.08,0.08l0 1.48c0,0.05 -0.04,0.08 -0.08,0.08l-0.89 0c-0.05,0 -0.09,-0.03 -0.09,-0.08l0 -1.48c0,-0.04 0.04,-0.08 0.09,-0.08zm-0.21 -3.67l1.3 0c0.17,0 0.3,0.13 0.3,0.3l0 1.83c0,0.17 -0.13,0.31 -0.3,0.31l-1.3 0c-0.16,0 -0.3,-0.14 -0.3,-0.31l0 -1.83c0,-0.17 0.14,-0.3 0.3,-0.3zm0.21 0.39l0.89 0c0.04,0 0.08,0.04 0.08,0.09l0 1.48c0,0.04 -0.04,0.08 -0.08,0.08l-0.89 0c-0.05,0 -0.09,-0.04 -0.09,-0.08l0 -1.48c0,-0.05 0.04,-0.09 0.09,-0.09zm-0.21 -3.71l1.3 0c0.17,0 0.3,0.14 0.3,0.3l0 1.83c0,0.17 -0.13,0.31 -0.3,0.31l-1.3 0c-0.16,0 -0.3,-0.14 -0.3,-0.31l0 -1.83c0,-0.16 0.14,-0.3 0.3,-0.3zm0.21 0.4l0.89 0c0.04,0 0.08,0.03 0.08,0.08l0 1.48c0,0.04 -0.04,0.08 -0.08,0.08l-0.89 0c-0.05,0 -0.09,-0.04 -0.09,-0.08l0 -1.48c0,-0.05 0.04,-0.08 0.09,-0.08zm4.14 9.33l0.4 0c0.11,0 0.21,0.09 0.21,0.21l0 0c0,0.11 -0.1,0.21 -0.21,0.21l-0.4 0c-0.12,0 -0.21,-0.1 -0.21,-0.21l0 0c0,-0.12 0.09,-0.21 0.21,-0.21zm0 -1.83l0.4 0c0.11,0 0.21,0.1 0.21,0.21l0 0c0,0.12 -0.1,0.21 -0.21,0.21l-0.4 0c-0.12,0 -0.21,-0.09 -0.21,-0.21l0 0c0,-0.11 0.09,-0.21 0.21,-0.21zm0 -1.96l0.4 0c0.11,0 0.21,0.1 0.21,0.21l0 0c0,0.12 -0.1,0.21 -0.21,0.21l-0.4 0c-0.12,0 -0.21,-0.09 -0.21,-0.21l0 0c0,-0.11 0.09,-0.21 0.21,-0.21zm-11.41 7.88l23.38 0c0.12,0 0.21,0.1 0.21,0.21l0 0c0,0.12 -0.09,0.21 -0.21,0.21l-23.38 0c-0.12,0 -0.21,-0.09 -0.21,-0.21l0 0c0,-0.11 0.09,-0.21 0.21,-0.21z"/>
 </g>
</svg>
