<?xml version="1.0" encoding="UTF-8"?>
<!DOCTYPE svg PUBLIC "-//W3C//DTD SVG 1.1//EN" "http://www.w3.org/Graphics/SVG/1.1/DTD/svg11.dtd">
<svg xmlns="http://www.w3.org/2000/svg" xml:space="preserve" version="1.1" style="fill-rule:evenodd; clip-rule:evenodd" viewBox="0 0 217.35 50.58">
 <defs>
  <style type="text/css">
   <![CDATA[
    .fil1 {fill:#DAE6ED}
    .fil0 {fill:#DAE6ED;fill-rule:nonzero}
   ]]>
  </style>
 </defs>
 <g>
   <polygon class="fil0" points="200.36,1.92 200.36,21.31 182.46,1.92 167.9,1.92 167.9,49.03 184.89,49.03 184.89,30.14 202.79,49.03 217.35,49.03 217.35,1.92 "/>
   <polygon class="fil0" points="93.05,49.03 111.95,49.03 111.95,1.92 93.05,1.92 "/>
   <path class="fil0" d="M73.58 19.69c0,3.43 -2.09,5.52 -6.46,5.52l-5.79 0 0 -11.04 5.79 0c4.37,0 6.46,2.08 6.46,5.52zm0.07 29.34l17.96 0 -9.89 -14.54c5.65,-2.89 8.88,-8.01 8.88,-14.8 0,-10.91 -8.34,-17.77 -21.47,-17.77l-23.68 0 0 47.11 15.88 0 0 -11.84 4.31 0 8.01 11.84z"/>
   <polygon class="fil0" points="12.29,49.03 31.19,49.03 31.19,19.77 43.48,19.77 43.48,1.92 0,1.92 0,19.77 12.29,19.77 "/>
   <path class="fil1" d="M140.46 0c14.71,0 26.64,11.32 26.64,25.29 0,13.97 -11.93,25.29 -26.64,25.29 -14.72,0 -26.65,-11.32 -26.65,-25.29 0,-13.97 11.93,-25.29 26.65,-25.29zm0 13.8c6.68,0 12.1,5.15 12.1,11.49 0,6.34 -5.42,11.48 -12.1,11.48 -6.69,0 -12.11,-5.14 -12.11,-11.48 0,-6.34 5.42,-11.49 12.11,-11.49z"/>
 </g>
</svg>
