<?xml version="1.0" encoding="UTF-8"?>
<!DOCTYPE svg PUBLIC "-//W3C//DTD SVG 1.1//EN" "http://www.w3.org/Graphics/SVG/1.1/DTD/svg11.dtd">
<svg xmlns="http://www.w3.org/2000/svg" xml:space="preserve" width="82px" height="77px" version="1.1" viewBox="0 0 14.94 14.04">
 <g>
  <path class="fill1" d="M6.63 14.04l0 -11.37 -5.28 5.31c-0.22,0.22 -0.58,0.22 -0.79,0l-0.4 -0.4c-0.21,-0.21 -0.21,-0.57 0,-0.79l6.62 -6.62 0.01 -0.01 0.01 0 0 0c0.1,-0.1 0.24,-0.16 0.39,-0.16l0.56 0c0.15,0 0.29,0.06 0.39,0.16l0 0 6.63 6.63c0.22,0.22 0.22,0.58 0,0.79l-0.39 0.4c-0.22,0.22 -0.58,0.22 -0.79,0l-5.29 -5.31 0 11.37 -1.67 0z"/>
 </g>
</svg>
