<?xml version="1.0" encoding="UTF-8"?>
<!DOCTYPE svg PUBLIC "-//W3C//DTD SVG 1.1//EN" "http://www.w3.org/Graphics/SVG/1.1/DTD/svg11.dtd">
<!-- Creator: CorelDRAW 2019 (64-Bit) -->
<svg xmlns="http://www.w3.org/2000/svg" xml:space="preserve" width="8.2707mm" height="8.2228mm" version="1.1" style="shape-rendering:geometricPrecision; text-rendering:geometricPrecision; image-rendering:optimizeQuality; fill-rule:evenodd; clip-rule:evenodd"
viewBox="0 0 61.61 61.25"
 xmlns:xlink="http://www.w3.org/1999/xlink"
 xmlns:xodm="http://www.corel.com/coreldraw/odm/2003">
 <defs>
  <style type="text/css">
   <![CDATA[
    .fil0 {fill:#FEFEFE}
   ]]>
  </style>
 </defs>
 <g id="Слой_x0020_1">
  <metadata id="CorelCorpID_0Corel-Layer"/>
  <g id="_2053657201312">
   <path class="fil0" d="M25.87 51.74c14.29,0 25.87,-11.58 25.87,-25.87 0,-14.29 -11.58,-25.87 -25.87,-25.87 -14.29,0 -25.87,11.58 -25.87,25.87 0,14.29 11.58,25.87 25.87,25.87zm0 -3.45c12.38,0 22.42,-10.04 22.42,-22.42 0,-12.38 -10.04,-22.42 -22.42,-22.42 -12.38,0 -22.42,10.04 -22.42,22.42 0,12.38 10.04,22.42 22.42,22.42z"/>
   <path class="fil0" d="M45.14 42.56l15.96 15.81c0.66,0.65 0.67,1.73 0.01,2.38l-0 0c-0.65,0.65 -1.73,0.66 -2.38,0.01l-15.96 -15.81c-0.66,-0.65 -0.67,-1.73 -0.01,-2.38l0 0c0.66,-0.66 1.72,-0.66 2.38,-0.01z"/>
   <path class="fil0" d="M22.81 39.96c-7.29,-1.2 -9.83,-5.95 -11.02,-8.97 -1.54,-1.84 -3.4,0.15 -2.95,1.2 1.7,4.66 4.93,9.35 13.31,10.98 2.44,0.3 2.76,-2.96 0.67,-3.21z"/>
  </g>
 </g>
</svg>
