<?xml version="1.0" encoding="UTF-8"?>
<!DOCTYPE svg PUBLIC "-//W3C//DTD SVG 1.1//EN" "http://www.w3.org/Graphics/SVG/1.1/DTD/svg11.dtd">
<!-- Creator: CorelDRAW 2019 (64-Bit) -->
<svg xmlns="http://www.w3.org/2000/svg" xml:space="preserve" width="100mm" height="14.8986mm" version="1.1" style="shape-rendering:geometricPrecision; text-rendering:geometricPrecision; image-rendering:optimizeQuality; fill-rule:evenodd; clip-rule:evenodd"
viewBox="0 0 2011.61 299.7"
 xmlns:xlink="http://www.w3.org/1999/xlink"
 xmlns:xodm="http://www.corel.com/coreldraw/odm/2003">
 <defs>
  <style type="text/css">
   <![CDATA[
    .fil1 {fill:#00497B}
    .fil0 {fill:#00497B;fill-rule:nonzero}
   ]]>
  </style>
 </defs>
 <g id="Слой_x0020_1">
  <metadata id="CorelCorpID_0Corel-Layer"/>
  <g id="_2053657250896">
   <path class="fil0" d="M1384.3 285c20.96,0 30.57,-10.31 30.57,-22.37 0,-29.86 -50.48,-16.28 -50.48,-38.77 0,-8.2 6.67,-14.87 21.67,-14.87 7.26,0 15.46,2.23 22.48,6.79l2.93 -6.91c-6.56,-4.57 -16.16,-7.26 -25.41,-7.26 -20.85,0 -30.22,10.42 -30.22,22.49 0,30.33 50.48,16.51 50.48,39 0,8.08 -6.67,14.52 -22.02,14.52 -10.77,0 -21.2,-4.22 -27.05,-9.95l-3.4 6.67c6.09,6.33 18.15,10.66 30.45,10.66zm-29.1 -117.57l54.58 0 0 -7.5 -45.91 0 0 -74.48 -8.67 0 0 81.98zm64.06 0l8.67 0 0 -81.98 -8.67 0 0 81.98zm88.18 -13.35c-6.33,4.57 -13.59,6.33 -21.43,6.33 -20.15,0 -35.02,-14.52 -35.02,-33.96 0,-19.56 14.87,-33.96 35.14,-33.96 9.6,0 17.8,2.81 24.71,9.6l5.39 -5.5c-7.26,-7.85 -18.04,-11.83 -30.45,-11.83 -25.06,0 -43.33,17.68 -43.33,41.69 0,24.01 18.27,41.69 43.22,41.69 11.36,0 22.37,-3.51 30.1,-10.42l0 -31.27 -8.31 0 0 27.64zm87.83 -68.63l0 36.54 -51.3 0 0 -36.54 -8.67 0 0 81.98 8.67 0 0 -37.83 51.3 0 0 37.83 8.55 0 0 -81.98 -8.55 0zm46.25 81.98l8.67 0 0 -74.49 28.81 0 0 -7.49 -66.29 0 0 7.49 28.81 0 0 74.49zm46.38 0l8.67 0 0 -81.98 -8.67 0 0 81.98zm90.41 -81.98l0 66.52 -52.82 -66.52 -7.14 0 0 81.98 8.67 0 0 -66.52 52.7 66.52 7.14 0 0 -81.98 -8.55 0zm88.07 68.63c-6.33,4.57 -13.59,6.33 -21.43,6.33 -20.15,0 -35.02,-14.52 -35.02,-33.96 0,-19.56 14.87,-33.96 35.14,-33.96 9.6,0 17.8,2.81 24.71,9.6l5.39 -5.5c-7.26,-7.85 -18.04,-11.83 -30.45,-11.83 -25.06,0 -43.33,17.68 -43.33,41.69 0,24.01 18.27,41.69 43.22,41.69 11.36,0 22.37,-3.51 30.1,-10.42l0 -31.27 -8.31 0 0 27.64zm-400.34 130.92c24.59,0 42.98,-17.68 42.98,-41.69 0,-24.01 -18.39,-41.69 -42.98,-41.69 -24.83,0 -43.1,17.8 -43.1,41.69 0,23.89 18.27,41.69 43.1,41.69zm0 -7.73c-19.79,0 -34.55,-14.41 -34.55,-33.96 0,-19.56 14.76,-33.96 34.55,-33.96 19.67,0 34.31,14.41 34.31,33.96 0,19.56 -14.64,33.96 -34.31,33.96zm58.9 7.03l54.58 0 0 -7.5 -45.91 0 0 -74.48 -8.67 0 0 81.98zm96.96 0.7c20.96,0 33.61,-12.18 33.61,-35.72l0 -46.96 -8.43 0 0 46.61c0,19.44 -9.14,28.34 -25.18,28.34 -15.93,0 -25.06,-8.9 -25.06,-28.34l0 -46.61 -8.67 0 0 46.96c0,23.54 12.76,35.72 33.73,35.72zm70.49 -0.7l8.67 0 0 -74.49 28.81 0 0 -7.49 -66.29 0 0 7.49 28.81 0 0 74.49zm47.77 0l8.67 0 0 -81.98 -8.67 0 0 81.98zm67.68 0.7c24.59,0 42.98,-17.68 42.98,-41.69 0,-24.01 -18.39,-41.69 -42.98,-41.69 -24.83,0 -43.1,17.8 -43.1,41.69 0,23.89 18.27,41.69 43.1,41.69zm0 -7.73c-19.79,0 -34.55,-14.41 -34.55,-33.96 0,-19.56 14.76,-33.96 34.55,-33.96 19.67,0 34.31,14.41 34.31,33.96 0,19.56 -14.64,33.96 -34.31,33.96zm118.86 -74.96l0 66.52 -52.82 -66.52 -7.14 0 0 81.98 8.67 0 0 -66.52 52.7 66.52 7.14 0 0 -81.98 -8.55 0zm54.33 82.68c20.96,0 30.57,-10.31 30.57,-22.37 0,-29.86 -50.48,-16.28 -50.48,-38.77 0,-8.2 6.67,-14.87 21.67,-14.87 7.26,0 15.46,2.23 22.48,6.79l2.93 -6.91c-6.56,-4.57 -16.16,-7.26 -25.41,-7.26 -20.85,0 -30.22,10.42 -30.22,22.49 0,30.33 50.48,16.51 50.48,39 0,8.08 -6.67,14.52 -22.02,14.52 -10.77,0 -21.2,-4.22 -27.05,-9.95l-3.4 6.67c6.09,6.33 18.15,10.66 30.45,10.66z"/>
   <g>
    <polygon class="fil0" points="1187.24,11.38 1187.24,126.27 1081.17,11.38 994.86,11.38 994.86,290.52 1095.52,290.52 1095.52,178.61 1201.6,290.52 1287.9,290.52 1287.9,11.38 "/>
    <polygon class="fil0" points="551.38,290.52 663.37,290.52 663.37,11.38 551.38,11.38 "/>
    <path class="fil0" d="M435.99 116.65c0,20.34 -12.36,32.7 -38.28,32.7l-34.3 0 0 -65.4 34.3 0c25.92,0 38.28,12.36 38.28,32.7zm0.4 173.87l106.45 0 -58.62 -86.14c33.5,-17.15 52.64,-47.45 52.64,-87.73 0,-64.6 -49.45,-105.28 -127.21,-105.28l-140.35 0 0 279.15 94.11 0 0 -70.19 25.52 0 47.46 70.19z"/>
    <polygon class="fil0" points="72.81,290.52 184.8,290.52 184.8,117.13 257.62,117.13 257.62,11.38 -0,11.38 -0,117.13 72.81,117.13 "/>
    <path class="fil1" d="M832.26 0c87.21,0 157.9,67.09 157.9,149.85 0,82.76 -70.7,149.85 -157.9,149.85 -87.21,0 -157.9,-67.09 -157.9,-149.85 0,-82.76 70.69,-149.85 157.9,-149.85zm0 81.8c39.6,0 71.71,30.47 71.71,68.05 0,37.58 -32.1,68.05 -71.71,68.05 -39.6,0 -71.71,-30.47 -71.71,-68.05 0,-37.58 32.11,-68.05 71.71,-68.05z"/>
   </g>
  </g>
 </g>
</svg>
